<?xml version="1.0" encoding="utf-8"?>
<!-- Generator: Adobe Illustrator 15.0.0, SVG Export Plug-In . SVG Version: 6.00 Build 0)  -->
<!DOCTYPE svg PUBLIC "-//W3C//DTD SVG 1.1//EN" "http://www.w3.org/Graphics/SVG/1.1/DTD/svg11.dtd">
<svg version="1.1" id="Layer_1" xmlns="http://www.w3.org/2000/svg" xmlns:xlink="http://www.w3.org/1999/xlink" x="0px" y="0px"
	 width="409.499px" height="426.241px" viewBox="0 0 409.499 426.241" enable-background="new 0 0 409.499 426.241"
	 xml:space="preserve">
<g>
	<path fill="#F5F5F5" d="M0,6.695h67.507l31.801,126.087c8.369,35.148,17.853,75.875,24.548,114.371h1.116
		c-2.79-40.169-3.348-84.802-3.348-113.255V6.695h61.928v412.851h-59.138l-36.264-130.55
		c-10.042-36.265-21.758-71.971-28.453-112.14H58.58c2.79,26.779,3.348,90.381,3.348,112.14v130.55H0V6.695z"/>
	<path fill="#F5F5F5" d="M211.441,322.47c0-51.327,27.338-87.033,56.349-116.602c-22.316-24.548-46.864-47.422-46.864-106.002
		C220.926,40.727,254.4,0,310.749,0c58.58,0,89.266,41.285,89.266,99.865c0,44.632-21.759,78.107-46.864,104.886
		c29.011,27.337,56.349,54.117,56.349,117.718c0,57.465-34.033,103.771-98.75,103.771
		C237.663,426.241,211.441,377.145,211.441,322.47z M338.087,323.586c0-32.917-12.832-54.117-28.454-74.202
		c-16.179,20.085-29.011,42.401-29.011,74.202c0,25.664,8.368,44.633,29.011,44.633
		C329.718,368.219,338.087,350.365,338.087,323.586z M335.297,99.307c0-25.664-7.811-39.053-22.874-39.053
		c-14.506,0-23.99,12.274-23.99,37.379c0,28.454,10.601,47.422,24.548,64.717C325.812,144.498,335.297,126.087,335.297,99.307z"/>
</g>
</svg>
