<?xml version="1.0" encoding="utf-8"?>
<!-- Generator: Adobe Illustrator 15.0.0, SVG Export Plug-In . SVG Version: 6.00 Build 0)  -->
<!DOCTYPE svg PUBLIC "-//W3C//DTD SVG 1.1//EN" "http://www.w3.org/Graphics/SVG/1.1/DTD/svg11.dtd">
<svg version="1.1" id="Layer_1" xmlns="http://www.w3.org/2000/svg" xmlns:xlink="http://www.w3.org/1999/xlink" x="0px" y="0px"
	 width="679.926px" height="380.411px" viewBox="0 0 679.926 380.411" enable-background="new 0 0 679.926 380.411"
	 xml:space="preserve">
<g>
	<path fill="#F5F5F5" d="M0,1.536h61.951l29.184,115.71c7.68,32.255,16.384,69.631,22.528,104.959h1.024
		c-2.56-36.864-3.072-77.823-3.072-103.935V1.536h56.832v378.875h-54.272L80.895,260.604c-9.216-33.279-19.968-66.046-26.112-102.91
		h-1.024c2.56,24.576,3.072,82.943,3.072,102.91v119.807H0V1.536z"/>
	<path fill="#F5F5F5" d="M247.29,0h68.607l61.951,380.411h-67.071l-10.752-84.99h-41.983l-10.752,84.99h-62.463L247.29,0z
		 M296.441,249.853c-2.56-23.04-10.239-83.455-12.287-101.887c-2.049-13.824-3.072-27.136-4.608-41.984h-0.512
		c-1.536,15.36-3.072,28.16-4.608,41.984c-2.048,18.943-9.728,78.847-12.8,101.887H296.441z"/>
	<path fill="#F5F5F5" d="M408.062,59.391h-49.663V1.536h165.373v57.855H474.62v321.02h-66.559V59.391z"/>
	<path fill="#F5F5F5" d="M541.688,1.536h135.679v57.855h-69.632v92.671h48.64v54.271h-48.64v118.271h72.191v55.807H541.688V1.536z"
		/>
</g>
</svg>
