<svg width="826" height="145" xmlns="http://www.w3.org/2000/svg" data-interaction-id="6467631c" fill="#1c2026" id="mds_logo" viewBox="0 0 826.93 144.69" ><path d="M75.63.08c13.9-.6,30.3,2.2,33.4,11.3,5,15-20.4,36.9-42.6,47.7-5.4,2.6-8.7,3.4-10.1,3.2-1.3-.2-1.5-1.4-1.1-2.2.8-1.6,4.4-4.8,9.1-8.3,25-18.2,33.1-31.6,28.4-37-3-3.5-15.7-5.9-28.8-5.9s-12.9.8-13.9-2.3c-.8-2.5,11.8-5.8,25.6-6.4v-.1Z" style="fill-rule:evenodd;"></path><path d="M44.53,68.68c11.5-.6,25.6,1.2,33.4,6.6,3.9,2.7,6.7,7.6,5.1,13.3-4.5,16.1-21.5,35.5-59.2,50.4-12,4.8-21.4,6.6-23.4,5.3-2.1-1.4,4.1-12,5.9-15.5,6-11.4,13.5-22.5,20.9-32.7,2.7-3.7,6.9-10.2,10.6-9.7,3.4.5-.6,7.4-3.2,11.7-4.4,7.4-16.4,27.8-12.4,29,8.8,2.7,50-25.4,43.9-41.1-2.8-7.3-20.7-8-32-8s-16.3,1.1-16.9-2.4c-.7-3.2,17-6.5,27.3-7.1v.2Z" style="fill-rule:evenodd;"></path><path d="M134.53,49.68c7,1.1,12.7,2,14,4.7,1.5,3-6.1,3.2-10,3.3-18.4.3-29.5.6-30,6.3-.7,7.3,7.9,14.6,16.3,24.8,7.7,9.4,16.5,18.6,14,27.2-3.2,10.7-17.7,13-31.6,13s-25.9-1.9-31.1-2.9c-6.6-1.2-5.6-4.1-3.8-5.1,2-1.1,13.1-1.1,20.9-1.5,6.4-.3,25-.3,27.9-4.6,3.6-5.3-5.1-14.3-13.1-23.7-10-11.8-20.9-23.9-15.1-32.8,7.5-11.5,29.4-10.7,41.7-8.7h-.1Z" style="fill-rule:evenodd;"></path><path d="M285.93,63.48h-16.3l-31.6,25.7-20.7-25.7h-16.3c-2.7,0-4.1,1.6-4.7,4.3l-13.1,61.5h13.8c2.9,0,4.5-1.3,5-3.8l9.8-46.1,15.9,20.8c.5.9,1.8,2,3.8,2h7.1c2,0,3.8-1.1,4.7-2l24.7-20.8-9.8,46.1c-.5,2.5.5,3.8,3.4,3.8h13.8l13.1-61.6c.6-2.7-.2-4.3-2.9-4.3l.3.1Z"></path><path d="M306.43,67.68l-13.1,61.6h66.5l1.4-6.6c.6-2.7-.1-3.6-3.5-3.6h-44.2l3.7-17.7h39.1c1.1,0,1.9-.7,2.1-1.6l1.5-7c.2-.9-.4-1.6-1.5-1.6h-39.1l3.8-17.6h42.6c2,0,4,0,4.5-2.4l1.6-7.8h-60c-3.1,0-5,1.3-5.6,4.2l.2.1Z"></path><path d="M437.33,63.48h-51.6s-.1.5-.2.8c-1.2,4.4-.6,9.3,7.6,9.3h37.5c18,0,20.6,8.2,17,22.8-3.5,14.3-9.7,21.6-23.2,22.7h-25.7l7.9-37.4h-15.2c-1.8,0-3.1,1.1-3.4,2.2l-9.6,45.3h42.6c23.9,0,40.4-8.1,45.6-33.3,3.8-18.8-5.1-32.5-29.4-32.5l.1.1Z"></path><path d="M506.63,63.48h-14.3l-14,65.8h17l13.4-63.6c.2-1.1-.6-2.2-2.1-2.2h0Z"></path><path d="M524.33,63.48l1,4.1c.3,1.8,1.7,2.9,2.8,2.9h13.6c4.3,0,16.6-.1,23,.4,5.6.5,10.5,2.5,14.6,5.7,4,3.2,6.5,8,7.1,13.1.3,3,0,6.3-.6,9.2-3.4,15.2-15.6,22.2-29.1,23.3h-30l8.2-40.6h-4.4c-1.8,0-3.1,1.1-3.4,2.2l-9.6,45.3h30.6c23.9,0,42.1-7.8,45.6-33.3,2.7-19.5-12-32.5-36.4-32.5h-33.2l.2.2Z"></path><path d="M662.03,129.28c3.1,0,3.8-1,4.3-3l8.2-39.3c3.1-14.3-8.5-23.6-27.8-23.6s-32.8,10.1-35.7,23.8l-8.8,42.1h7.5l5.9-27.8h48.2l-5.9,27.8h4.1ZM666.53,88.88l-1.2,5.6h-48.2l1.2-5.5c2.2-10.4,10.3-18.7,28-18.7s23,5.3,20.2,18.5v.1Z"></path><path d="M758.93,63.48h-71.2c-3.6,0-3.9,1.1-4,1.7l-.8,4h33.8l-12.8,60.2h4c3.1,0,3.8-1,4.3-3l12.2-57.2h31c2.2,0,2.5-.4,2.9-2.2l.7-3.4-.1-.1Z"></path><path d="M813.93,129.28c3.1,0,3.8-1,4.3-3l8.2-39.3c3.1-14.3-8.5-23.6-27.8-23.6s-32.8,10.1-35.7,23.8l-8.8,42.1h7.5l5.9-27.8h48.2l-5.9,27.8h4.1ZM818.33,88.88l-1.2,5.6h-48.2l1.2-5.5c2.2-10.4,10.3-18.7,28-18.7s23,5.3,20.2,18.5v.1Z"></path></svg>